
<svg display="none" xmlns="http://www.w3.org/2000/svg">
  <symbol viewBox="0 0 24 24" id="twitter">
    <path d="M21.634,4.031c-0.815,0.385-2.202,1.107-2.899,1.245c-0.027,0.007-0.049,0.016-0.075,0.023 c-0.813-0.802-1.927-1.299-3.16-1.299c-2.485,0-4.5,2.015-4.5,4.5c0,0.131-0.011,0.372,0,0.5c-3.218,0-5.568-1.679-7.327-3.837 C3.438,4.873,3.188,5.024,3.136,5.23C3.019,5.696,2.979,6.475,2.979,7.031c0,1.401,1.095,2.777,2.8,3.63 c-0.314,0.081-0.66,0.139-1.02,0.139c-0.424,0-0.912-0.111-1.339-0.335c-0.158-0.083-0.499-0.06-0.398,0.344 c0.405,1.619,2.253,2.756,3.904,3.087c-0.375,0.221-1.175,0.176-1.543,0.176c-0.136,0-0.609-0.032-0.915-0.07 c-0.279-0.034-0.708,0.038-0.349,0.582c0.771,1.167,2.515,1.9,4.016,1.928c-1.382,1.084-3.642,1.48-5.807,1.48 c-0.438-0.01-0.416,0.489-0.063,0.674C3.862,19.504,6.478,20,8.347,20C15.777,20,20,14.337,20,8.999 c0-0.086-0.002-0.266-0.005-0.447C19.995,8.534,20,8.517,20,8.499c0-0.027-0.008-0.053-0.008-0.08 c-0.003-0.136-0.006-0.263-0.009-0.329c0.589-0.425,1.491-1.163,1.947-1.728c0.155-0.192,0.03-0.425-0.181-0.352 c-0.543,0.189-1.482,0.555-2.07,0.625c1.177-0.779,1.759-1.457,2.259-2.21C22.109,4.168,21.895,3.907,21.634,4.031z"></path>
  </symbol>

  <symbol viewBox="0 0 24 24" id="facebook">
    <path d="M17,3H7C4.791,3,3,4.791,3,7v10c0,2.209,1.791,4,4,4h5.621v-6.961h-2.343v-2.725h2.343V9.309 c0-2.324,1.421-3.591,3.495-3.591c0.699-0.002,1.397,0.034,2.092,0.105v2.43h-1.428c-1.13,0-1.35,0.534-1.35,1.322v1.735h2.7 l-0.351,2.725h-2.365V21H17c2.209,0,4-1.791,4-4V7C21,4.791,19.209,3,17,3z"></path>
  </symbol>

  <symbol viewBox="0 0 24 24" id="instagram">
    <path d="M 8 3 C 5.239 3 3 5.239 3 8 L 3 16 C 3 18.761 5.239 21 8 21 L 16 21 C 18.761 21 21 18.761 21 16 L 21 8 C 21 5.239 18.761 3 16 3 L 8 3 z M 18 5 C 18.552 5 19 5.448 19 6 C 19 6.552 18.552 7 18 7 C 17.448 7 17 6.552 17 6 C 17 5.448 17.448 5 18 5 z M 12 7 C 14.761 7 17 9.239 17 12 C 17 14.761 14.761 17 12 17 C 9.239 17 7 14.761 7 12 C 7 9.239 9.239 7 12 7 z M 12 9 A 3 3 0 0 0 9 12 A 3 3 0 0 0 12 15 A 3 3 0 0 0 15 12 A 3 3 0 0 0 12 9 z"></path>
  </symbol>

  <symbol viewBox="0 0 24 24" id="linkedin">
    <path d="M19,3H5C3.895,3,3,3.895,3,5v14c0,1.105,0.895,2,2,2h14c1.105,0,2-0.895,2-2V5C21,3.895,20.105,3,19,3z M7.738,17L7.738,17 c-0.697,0-1.262-0.565-1.262-1.262v-4.477C6.477,10.565,7.042,10,7.738,10h0C8.435,10,9,10.565,9,11.262v4.477 C9,16.435,8.435,17,7.738,17z M7.694,8.717c-0.771,0-1.286-0.514-1.286-1.2s0.514-1.2,1.371-1.2c0.771,0,1.286,0.514,1.286,1.2 S8.551,8.717,7.694,8.717z M16.779,17L16.779,17c-0.674,0-1.221-0.547-1.221-1.221v-2.605c0-1.058-0.651-1.174-0.895-1.174 s-1.058,0.035-1.058,1.174v2.605c0,0.674-0.547,1.221-1.221,1.221h-0.081c-0.674,0-1.221-0.547-1.221-1.221v-4.517 c0-0.697,0.565-1.262,1.262-1.262h0c0.697,0,1.262,0.565,1.262,1.262c0,0,0.282-1.262,2.198-1.262C17.023,10,18,10.977,18,13.174 v2.605C18,16.453,17.453,17,16.779,17z"></path>
  </symbol>

  <symbol viewBox="0 0 24 24" id="telegram">
    <path d="M 20.302734 2.984375 C 20.013769 2.996945 19.748583 3.080055 19.515625 3.171875 C 19.300407 3.256634 18.52754 3.5814726 17.296875 4.0976562 C 16.06621 4.61384 14.435476 5.2982348 12.697266 6.0292969 C 9.2208449 7.4914211 5.314238 9.1361259 3.3125 9.9785156 C 3.243759 10.007156 2.9645852 10.092621 2.65625 10.328125 C 2.3471996 10.564176 2.0039062 11.076462 2.0039062 11.636719 C 2.0039062 12.088671 2.2295201 12.548966 2.5019531 12.8125 C 2.7743861 13.076034 3.0504903 13.199244 3.28125 13.291016 C 3.9563403 13.559857 6.0424892 14.392968 6.9492188 14.755859 C 7.2668647 15.707799 8.0129251 17.950071 8.1875 18.501953 L 8.1855469 18.501953 C 8.3275588 18.951162 8.4659791 19.243913 8.6582031 19.488281 C 8.7543151 19.610465 8.8690398 19.721184 9.0097656 19.808594 C 9.0637596 19.842134 9.1235454 19.868148 9.1835938 19.892578 C 9.191962 19.896131 9.2005867 19.897012 9.2089844 19.900391 L 9.1855469 19.894531 C 9.2029579 19.901531 9.2185841 19.911859 9.2363281 19.917969 C 9.2652427 19.927926 9.2852873 19.927599 9.3242188 19.935547 C 9.4612233 19.977694 9.5979794 20.005859 9.7246094 20.005859 C 10.26822 20.005859 10.601562 19.710938 10.601562 19.710938 L 10.623047 19.695312 L 12.970703 17.708984 L 15.845703 20.367188 C 15.897113 20.439837 16.308174 20.998047 17.261719 20.998047 C 17.829844 20.998047 18.280978 20.718791 18.568359 20.423828 C 18.855741 20.128866 19.034757 19.82706 19.115234 19.417969 L 19.115234 19.414062 L 19.115234 19.412109 C 19.171124 19.121728 21.931641 5.265625 21.931641 5.265625 L 21.925781 5.2890625 C 22.01148 4.9067181 22.036735 4.5369631 21.935547 4.1601562 C 21.834358 3.7833495 21.561271 3.4156252 21.232422 3.2226562 C 20.903572 3.0296874 20.591699 2.9718046 20.302734 2.984375 z M 19.908203 5.1738281 C 19.799749 5.7182284 17.343164 18.059965 17.183594 18.878906 L 14.328125 16.240234 C 13.59209 15.559749 12.44438 15.535812 11.679688 16.181641 L 10.222656 17.414062 L 11 14.375 C 11 14.375 16.362547 8.9468594 16.685547 8.6308594 C 16.945547 8.3778594 17 8.2891719 17 8.2011719 C 17 8.0841719 16.939781 8 16.800781 8 C 16.675781 8 16.506016 8.1197812 16.416016 8.1757812 C 15.267511 8.8918132 10.350132 11.694224 7.96875 13.048828 C 7.8792978 12.995267 7.7913128 12.939666 7.6933594 12.900391 C 6.9119785 12.587666 5.4101276 11.985551 4.53125 11.634766 C 6.6055146 10.76177 10.161156 9.2658083 13.472656 7.8730469 C 15.210571 7.142109 16.840822 6.4570977 18.070312 5.9414062 C 19.108158 5.5060977 19.649538 5.2807035 19.908203 5.1738281 z M 17.152344 19.023438 C 17.152344 19.023438 17.154297 19.023438 17.154297 19.023438 C 17.154234 19.023761 17.152444 19.03095 17.152344 19.03125 C 17.154024 19.022709 17.151187 19.029588 17.152344 19.023438 z"></path>
  </symbol>
</svg>
